<svg width="30" height="30" viewBox="0 0 30 30" fill="none" xmlns="http://www.w3.org/2000/svg">
<path d="M28.8926 0.0731677L25.718 1.51813C25.5147 1.61196 25.3271 1.7402 25.1676 1.8997L19.9945 7.07594L2.17947 4.93976C1.85733 4.90223 1.53205 5.0117 1.30374 5.24314L0.312277 6.2346C-0.213166 6.76005 -0.0505287 7.64829 0.628168 7.95167L13.3952 13.6752L9.72958 17.3408H3.32731C3.04583 17.3408 2.77685 17.4534 2.57668 17.6504L2.04186 18.1884C1.51016 18.7201 1.68531 19.6177 2.37339 19.9117L7.77481 22.2262L10.0893 27.6276C10.3833 28.3157 11.284 28.4908 11.8126 27.9591L12.3505 27.4212C12.5507 27.221 12.6602 26.952 12.6602 26.6706V20.2683L16.3258 16.6027L22.0493 29.3729C22.3527 30.0515 23.2409 30.2142 23.7664 29.6887L24.7578 28.6973C24.9893 28.4658 25.0987 28.1437 25.0612 27.8216L22.9219 10.0066L28.0981 4.83033C28.2577 4.67082 28.3859 4.48629 28.4797 4.27986L29.9247 1.10532C30.2281 0.451611 29.5525 -0.227085 28.8926 0.0731677Z" fill="white"/>
</svg>
