<svg width="160" height="45" viewBox="0 0 160 45" fill="none" xmlns="http://www.w3.org/2000/svg">
<g clip-path="url(#clip0)">
<path d="M36.7229 33.1277C36.1088 34.1849 35.3842 35.1797 34.5589 36.0952L34.5811 36.1168L33.8147 36.8689C30.403 40.2256 25.8615 42.0758 21.0252 42.0758C16.2086 42.0758 11.6793 40.24 8.27253 36.9073C4.86576 33.5746 2.98921 29.1438 2.98921 24.4319C2.98921 24.0835 2.99904 23.7303 3.02114 23.3794C3.0236 23.3314 3.02606 23.2833 3.03097 23.2329V23.2185C3.03343 23.1872 3.03588 23.1536 3.03834 23.1223V23.1055C3.04325 23.0334 3.05062 22.959 3.05799 22.8869C3.0629 22.8268 3.06781 22.7643 3.07518 22.6994C3.08501 22.6057 3.09483 22.5096 3.10466 22.4159C3.11202 22.3607 3.11694 22.2982 3.12676 22.2381C3.13659 22.1612 3.14641 22.0723 3.15869 21.9858C3.16606 21.9378 3.17343 21.8897 3.1808 21.8416C3.19062 21.7624 3.20536 21.6734 3.2201 21.5869C3.22747 21.5413 3.23729 21.4884 3.24466 21.438C3.25203 21.3947 3.2594 21.3515 3.26922 21.3082C3.27905 21.253 3.29133 21.1881 3.30361 21.1256C3.31343 21.0703 3.32572 21.0103 3.338 20.9502C3.35273 20.8805 3.36501 20.8132 3.38221 20.7412C3.48537 20.2606 3.61309 19.7776 3.75801 19.3067L3.76292 19.2947C3.78012 19.2322 3.79976 19.1697 3.82187 19.1096C3.83906 19.0568 3.85626 19.0039 3.87345 18.9486C3.97661 18.6411 4.0896 18.3287 4.20995 18.0284C4.22715 17.9875 4.24434 17.9419 4.26153 17.8986C4.28118 17.853 4.29838 17.8049 4.32048 17.7544C4.34504 17.6968 4.37206 17.6319 4.39908 17.567C4.41873 17.519 4.44329 17.4637 4.46786 17.4108L4.47768 17.3868C4.51207 17.3147 4.544 17.2402 4.57838 17.1682C4.60295 17.1129 4.62751 17.06 4.65453 17.0072C5.10893 16.046 5.66158 15.1186 6.29282 14.2487L6.39598 14.1118C6.46721 14.0157 6.53844 13.9195 6.61213 13.8282C6.64652 13.785 6.68336 13.7369 6.7202 13.6913C6.7988 13.5904 6.87986 13.4918 6.95846 13.3957C7.00513 13.3405 7.05179 13.2804 7.10092 13.2251C7.14513 13.1723 7.19425 13.117 7.24338 13.0593C7.29005 13.0041 7.34163 12.9464 7.39075 12.8911C7.44724 12.8287 7.50374 12.7638 7.56023 12.7013L5.44297 10.6277C1.93059 14.4073 0 19.2923 0 24.4295C0 29.9247 2.18603 35.0884 6.15773 38.9737C10.1294 42.8591 15.4078 44.9976 21.0252 44.9976C26.6598 44.9976 31.9529 42.8447 35.9271 38.9377C37.0618 37.8228 38.0615 36.5877 38.904 35.259L36.7229 33.1277Z" fill="#C8A35F"/>
<path d="M9.81255 35.4008C12.8067 38.3299 16.7906 39.9445 21.0252 39.9445C21.1578 39.9445 21.2904 39.9421 21.4231 39.9397C21.4894 39.9397 21.5532 39.9373 21.6196 39.9349H21.6294C21.7276 39.9301 21.8234 39.9253 21.9217 39.9205C22.0003 39.9157 22.0764 39.9109 22.155 39.9061C22.1943 39.9037 22.2287 39.9013 22.2606 39.8989L22.3147 39.8941C22.3859 39.8893 22.4571 39.8821 22.5308 39.8749C22.5947 39.8701 22.6536 39.8653 22.715 39.858C22.7592 39.8532 22.7985 39.8484 22.8354 39.846L22.9164 39.8364C22.968 39.8292 23.0196 39.8244 23.0736 39.8172C23.2701 39.7932 23.4617 39.7667 23.6509 39.7355C23.7049 39.7259 23.7565 39.7163 23.8081 39.7091L23.8252 39.7067C23.867 39.6995 23.9088 39.6923 23.9481 39.685L23.9677 39.6802C24.0217 39.6706 24.0758 39.661 24.1298 39.649C24.2723 39.6226 24.4123 39.5937 24.5498 39.5625C24.6432 39.5433 24.7365 39.5193 24.8298 39.4976L24.8421 39.4952C24.8667 39.4904 24.8888 39.4856 24.9133 39.4784C24.9821 39.4616 25.0435 39.4448 25.1074 39.4303C25.1614 39.4159 25.213 39.4039 25.2621 39.3895C25.3063 39.3775 25.3456 39.3679 25.3825 39.3559C25.4193 39.3462 25.4488 39.339 25.4758 39.3294L25.4979 39.3222C25.5372 39.3126 25.5765 39.3006 25.6158 39.2886C25.6821 39.2694 25.7386 39.2525 25.7951 39.2333C25.8418 39.2189 25.8811 39.2069 25.9253 39.1949C26.0579 39.1516 26.1906 39.1084 26.3208 39.0627C26.3576 39.0507 26.392 39.0387 26.4264 39.0267L26.4534 39.0171C26.5001 39.0002 26.5418 38.9858 26.5811 38.9714C26.6474 38.9474 26.7039 38.9258 26.7629 38.9041C26.812 38.8849 26.8562 38.8705 26.898 38.8537C26.979 38.8224 27.0527 38.7936 27.1264 38.7624L27.3475 38.6711C27.4162 38.6422 27.485 38.6134 27.5489 38.5846C27.5882 38.5677 27.6201 38.5533 27.6545 38.5389L27.6864 38.5245C27.7404 38.5005 27.7945 38.474 27.8485 38.45C28.1826 38.2938 28.5117 38.128 28.8286 37.9502C28.8629 37.931 28.8949 37.9118 28.9293 37.8949C29.0029 37.8541 29.0766 37.8108 29.1479 37.77L29.5114 37.5513C29.671 37.4504 29.8381 37.3447 30.0174 37.2246C30.0665 37.1909 30.1156 37.1573 30.1647 37.1236L30.1844 37.1092C30.2212 37.0828 30.2581 37.0588 30.2949 37.0323L30.3047 37.0251C30.3318 37.0059 30.3588 36.9867 30.3858 36.9675L30.3956 36.9602C30.4423 36.929 30.4865 36.8954 30.5307 36.8617C30.5823 36.8257 30.6314 36.7872 30.6781 36.7512C30.7125 36.7248 30.7395 36.7031 30.769 36.6815L30.8033 36.6551C30.8525 36.6166 30.904 36.5782 30.9532 36.5373C31.0048 36.4965 31.0563 36.4557 31.1055 36.4172L31.1177 36.4076C31.2135 36.3307 31.3069 36.2514 31.4027 36.1721C31.4321 36.1481 31.4592 36.1241 31.4886 36.0976L29.3689 34.0216C27.0478 35.9583 24.1028 37.0179 21.0325 37.0179C13.939 37.0179 8.16688 31.3713 8.16688 24.4319C8.16688 21.0488 9.52026 17.8747 11.974 15.4935C13.126 14.3761 14.5064 13.4703 15.9973 12.848L13.7474 10.647C12.313 11.375 11.0038 12.3097 9.85185 13.4294C6.8307 16.3633 5.16785 20.2679 5.16785 24.4295C5.16785 28.5744 6.81842 32.4694 9.81255 35.4008Z" fill="white"/>
<path d="M39.0195 20.5681C39.0195 15.0729 36.8334 9.90923 32.8617 6.02387C28.89 2.13851 23.6092 0 17.9918 0C12.3572 0 7.0641 2.15052 3.0924 6.05991C1.95762 7.17242 0.957945 8.40987 0.113007 9.73863L2.29658 11.8747C2.91064 10.8175 3.63522 9.82273 4.46051 8.90725L4.4384 8.88563L5.20474 8.13354C8.61397 4.7768 13.158 2.92663 17.9943 2.92663C22.8109 2.92663 27.3402 4.76239 30.7469 8.0951C34.1537 11.4278 36.0302 15.8562 36.0302 20.5705C36.0302 20.9189 36.0204 21.2746 35.9983 21.623C35.9959 21.6686 35.9934 21.7191 35.9885 21.7695C35.986 21.8056 35.9836 21.8416 35.9811 21.8777V21.8945C35.9762 21.9666 35.9688 22.0411 35.9615 22.1131C35.9566 22.1732 35.9516 22.2381 35.9443 22.303C35.9344 22.3943 35.9246 22.4904 35.9148 22.5865C35.9074 22.6418 35.9025 22.7018 35.8927 22.7643C35.8829 22.8412 35.873 22.9277 35.8608 23.0166C35.8534 23.0647 35.846 23.1127 35.8387 23.1584C35.8288 23.2401 35.8141 23.3266 35.7994 23.4155C35.792 23.4611 35.7822 23.514 35.7748 23.5644C35.7674 23.6077 35.7601 23.651 35.7502 23.6942C35.7404 23.7495 35.7281 23.8143 35.7158 23.8768C35.706 23.9321 35.6937 23.9922 35.679 24.0522C35.6667 24.1195 35.652 24.1892 35.6348 24.2613C35.5316 24.7418 35.4039 25.2272 35.259 25.6958C35.2393 25.7606 35.2197 25.8279 35.1951 25.8952C35.1779 25.948 35.1607 26.0009 35.1435 26.0562C35.0404 26.3661 34.9274 26.6761 34.807 26.9765C34.7899 27.0173 34.7727 27.0606 34.7555 27.1038C34.7358 27.1519 34.7162 27.1999 34.6965 27.248C34.672 27.3056 34.6449 27.3705 34.6179 27.4354C34.5983 27.4834 34.5737 27.5387 34.5491 27.5916L34.5393 27.6156C34.5049 27.6877 34.473 27.7622 34.4386 27.8343C34.4141 27.8895 34.3895 27.9424 34.3625 27.9952C33.9081 28.9564 33.3554 29.8839 32.7242 30.7537L32.6235 30.8906C32.5498 30.9892 32.4786 31.0829 32.4073 31.1742C32.3729 31.2198 32.3361 31.2655 32.2993 31.3111C32.2207 31.4121 32.1396 31.5106 32.061 31.6067C32.0143 31.6619 31.9677 31.722 31.9185 31.7773C31.8768 31.8277 31.8326 31.8806 31.7859 31.9335L31.7761 31.9431C31.727 31.9983 31.6778 32.056 31.6262 32.1113C31.5698 32.1738 31.5133 32.2386 31.4568 32.3011L33.574 34.3747C37.0889 30.5951 39.0195 25.7078 39.0195 20.5681Z" fill="white"/>
<path d="M23.027 32.1547L25.2769 34.3557C26.7113 33.6276 28.0205 32.6929 29.1724 31.5732C32.1911 28.6394 33.8515 24.7324 33.8515 20.5707C33.8515 16.4282 32.201 12.5308 29.2068 9.6018C26.2102 6.67036 22.2287 5.05566 17.9918 5.05566C17.8591 5.05566 17.7265 5.05807 17.5938 5.06047C17.5275 5.06047 17.4637 5.06287 17.3973 5.06528H17.39C17.2917 5.07008 17.1959 5.07489 17.0977 5.07969C17.0191 5.0845 16.9429 5.0893 16.8643 5.09411C16.825 5.09651 16.7907 5.09891 16.7587 5.10132L16.7047 5.10612C16.6359 5.11093 16.5622 5.11814 16.491 5.12535C16.4271 5.13255 16.3682 5.13736 16.3068 5.14457C16.2626 5.14937 16.2233 5.15418 16.1864 5.15658L16.125 5.16379C16.1177 5.16379 16.1103 5.16619 16.1054 5.16619C16.0538 5.171 16.0022 5.17821 15.9506 5.18542C15.7541 5.20944 15.5626 5.23828 15.3734 5.26711C15.3194 5.27672 15.2678 5.28393 15.2162 5.29354L15.199 5.29595C15.1573 5.30315 15.118 5.31036 15.0787 5.31757L15.0517 5.32238C15.0001 5.33199 14.9485 5.3416 14.8945 5.35121C14.7471 5.37764 14.6071 5.40648 14.4695 5.43771C14.3762 5.45693 14.2829 5.48096 14.1895 5.50259L14.1772 5.50499C14.1527 5.5098 14.1306 5.5146 14.106 5.52181C14.0372 5.53863 13.9758 5.55545 13.912 5.56987C13.8579 5.58428 13.8088 5.5963 13.7572 5.61072C13.713 5.62273 13.6737 5.63234 13.6344 5.64435C13.5976 5.65397 13.5681 5.66358 13.5411 5.67079L13.519 5.67799C13.4797 5.68761 13.4404 5.69962 13.4011 5.71163C13.3348 5.73086 13.2783 5.74768 13.2218 5.7669C13.1751 5.78132 13.1358 5.79333 13.0916 5.80534C12.959 5.84859 12.8263 5.89185 12.6962 5.9375C12.6593 5.94951 12.6274 5.96153 12.593 5.97354L12.5635 5.98315C12.5193 5.99997 12.48 6.01199 12.4407 6.02881C12.3719 6.05283 12.313 6.07446 12.254 6.09849C12.2049 6.11771 12.1632 6.13453 12.1189 6.15135C12.0379 6.18259 11.9642 6.21142 11.8905 6.24266L11.6695 6.33396C11.6007 6.3628 11.5344 6.39163 11.468 6.42047C11.4312 6.43729 11.3968 6.4517 11.3624 6.46612L11.3305 6.48054C11.2765 6.50456 11.2224 6.531 11.1684 6.55502C10.8343 6.71121 10.5052 6.877 10.1884 7.05481C10.1515 7.07403 10.122 7.09085 10.0877 7.11008C10.0189 7.14852 9.94765 7.18937 9.88133 7.22781L9.6529 7.36477C9.60623 7.39361 9.55711 7.42485 9.50798 7.45368C9.34587 7.5546 9.18131 7.66032 9.00446 7.78046C8.95779 7.8117 8.91358 7.84294 8.86937 7.87177L8.83989 7.89099C8.79814 7.91983 8.76129 7.94626 8.72445 7.97269L8.70971 7.9823C8.68515 8.00152 8.66059 8.01834 8.63357 8.03756L8.62375 8.04477C8.57708 8.07601 8.53287 8.10965 8.48866 8.14329C8.43707 8.17933 8.39041 8.21778 8.34128 8.25382C8.30689 8.28025 8.27742 8.30187 8.2504 8.3235L8.21602 8.34993C8.16689 8.38838 8.11531 8.42682 8.06619 8.46767C8.00969 8.51092 7.95566 8.55657 7.90162 8.59983C7.80583 8.67672 7.71249 8.75361 7.6167 8.8353C7.58722 8.85933 7.56021 8.88336 7.53073 8.90979L9.6529 10.9858C11.974 9.04915 14.919 7.98711 17.9893 7.98711C25.0828 7.98711 30.8549 13.6337 30.8549 20.5731C30.8549 23.9563 29.5016 27.1304 27.0478 29.5116C25.8983 30.6241 24.5179 31.5324 23.027 32.1547Z" fill="#C8A35F"/>
</g>
<g clip-path="url(#clip1)">
<path d="M57.9196 29.5779L57.3059 31.3918H58.5464L57.9327 29.5779H57.9196Z" fill="white"/>
<path d="M58.8076 19.3208C58.5986 20.2341 58.2004 20.9303 57.6258 21.4094C57.0382 21.8692 56.3266 22.1055 55.4778 22.1055C54.7857 22.1055 54.1459 21.9331 53.5387 21.5946C52.9511 21.2561 52.5137 20.7323 52.2394 20.0361C51.9391 19.34 51.802 18.5096 51.802 17.5771C51.802 16.849 51.926 16.1337 52.1676 15.4566C52.4092 14.7732 52.827 14.2303 53.4016 13.8279C53.9892 13.4383 54.7335 13.2339 55.6019 13.2339C56.3657 13.2339 56.986 13.4064 57.4887 13.7768C57.9915 14.1345 58.3701 14.7094 58.6313 15.5077L58.6639 15.5908L60.4006 15.2012L60.368 15.099C60.0415 14.0451 59.467 13.2148 58.6509 12.6208C57.8348 12.046 56.8293 11.7585 55.6345 11.7585C54.5964 11.7585 53.6236 11.9821 52.7356 12.4356C51.8738 12.9082 51.1817 13.5852 50.7117 14.473C50.2416 15.3544 50 16.4019 50 17.5771C50 18.6629 50.2089 19.6976 50.6268 20.6301C51.0446 21.5818 51.6649 22.3291 52.481 22.8209C53.2775 23.3318 54.3352 23.5873 55.6214 23.5873C56.8554 23.5873 57.9131 23.2488 58.7749 22.6037C59.6433 21.9586 60.2309 20.9942 60.5639 19.7551L60.5965 19.6529L58.8467 19.2314L58.8076 19.3208Z" fill="white"/>
<path d="M74.6925 12.5055C73.8046 11.9945 72.7991 11.739 71.7088 11.739C70.0243 11.739 68.6402 12.2819 67.5825 13.3485C66.5248 14.4152 65.9894 15.9289 65.9894 17.8067C65.9894 18.8095 66.218 19.7547 66.6815 20.6553C67.132 21.5559 67.811 22.2648 68.6924 22.795C69.5738 23.3187 70.5858 23.5742 71.6892 23.5742C72.7273 23.5742 73.7001 23.3379 74.5816 22.8588C75.4826 22.399 76.1746 21.69 76.6774 20.7703C77.1605 19.8697 77.4086 18.8222 77.4086 17.6662C77.4086 16.5293 77.167 15.5137 76.7165 14.6132C76.253 13.7254 75.574 13.01 74.6925 12.5055ZM74.5032 20.9491C73.772 21.7092 72.8187 22.1052 71.6958 22.1052C70.5858 22.1052 69.6522 21.7156 68.9014 20.9683C68.1701 20.2018 67.7914 19.1544 67.7914 17.8322C67.7914 16.1844 68.1897 14.9836 68.9536 14.2874C69.7175 13.5913 70.6511 13.2336 71.7088 13.2336C72.4727 13.2336 73.1452 13.4188 73.7524 13.7765C74.34 14.1342 74.8101 14.6579 75.1235 15.3221C75.4368 15.9864 75.5935 16.7784 75.5935 17.679C75.5935 19.0841 75.2279 20.1891 74.5032 20.9491Z" fill="white"/>
<path d="M92.5688 12.2309L89.7744 20.0166C89.5459 20.6426 89.3762 21.1344 89.2521 21.524L88.782 20.1699L85.9942 12.1287H85.8048V16.2866L88.3903 23.5806H89.9311L92.5688 16.2994V12.2309Z" fill="white"/>
<path d="M85.1781 12.1287H83.4805V23.5806H85.1781V12.1287Z" fill="white"/>
<path d="M94.8736 12.1287H93.1891V23.5806H94.8736V12.1287Z" fill="white"/>
<path d="M102.695 12.1287H100.945V23.5806H102.695V12.1287Z" fill="white"/>
<path d="M109.733 13.9106C109.472 13.438 109.159 13.0484 108.748 12.7929C108.349 12.5183 107.847 12.333 107.272 12.25C106.854 12.167 106.247 12.1287 105.47 12.1287H103.322V13.6552H105.594C106.286 13.6552 106.756 13.6871 107.017 13.7574C107.396 13.8595 107.71 14.0639 107.938 14.3833C108.18 14.7026 108.284 15.0795 108.284 15.5393C108.284 16.1525 108.095 16.6251 107.696 16.9636C107.298 17.3022 106.606 17.4746 105.633 17.4746H103.329V19.0203H105.62C107.285 19.0203 108.48 18.6626 109.12 17.9856C109.779 17.3085 110.106 16.4782 110.106 15.4946C110.099 14.9134 109.975 14.3833 109.733 13.9106Z" fill="white"/>
<path d="M120.741 12.1285L116.165 23.5804H118.019L118.541 22.2392H118.521L119.84 18.7646L120.121 18.0493L121.094 15.52H121.113C121.322 14.958 121.492 14.3831 121.636 13.8211C121.812 14.364 122.054 15.0282 122.347 15.7691L123.529 18.7518H120.532L119.997 20.157H124.091L125.462 23.5677H127.453L122.563 12.1157H120.741V12.1285Z" fill="white"/>
<path d="M134.968 12.1287H133.336V23.5806H134.968V12.1287Z" fill="white"/>
<path d="M141.066 20.732L141.033 20.6809V23.5806H142.764V12.1287H141.066V20.732Z" fill="white"/>
<path d="M135.588 15.7948L140.407 22.712V19.7804L135.588 12.876V15.7948Z" fill="white"/>
<path d="M157.917 12.1287L155.613 15.4882C155.162 16.1525 154.764 16.7784 154.418 17.3213V17.3022L153.445 18.7456V23.5806H155.214V18.7456L159.98 12.1287H157.917Z" fill="white"/>
<path d="M154.052 16.7082L153.327 15.5713L150.984 12.1287H148.835L153.066 18.2027L154.052 16.7082Z" fill="white"/>
<path d="M50 29.2906H51.1622V32.8801H51.8085V29.2906H52.9707V28.7285H50V29.2906Z" fill="white"/>
<path d="M57.6585 28.7285L56.1176 32.8801H56.7967L57.1231 31.954H58.7358L59.0622 32.8801H59.7412L58.2004 28.7285H57.6585ZM57.3059 31.3919L57.9196 29.578H57.9327L58.5464 31.3919H57.3059Z" fill="white"/>
<path d="M65.0362 31.1876H65.898V31.4047C65.8915 31.6666 65.8131 31.8774 65.6499 32.037C65.4867 32.2031 65.2778 32.2861 65.0297 32.2861C64.8795 32.2861 64.7489 32.2542 64.6379 32.1903C64.5269 32.1392 64.4355 32.069 64.3702 31.9795C64.2854 31.8901 64.2331 31.7752 64.207 31.6283C64.1744 31.4814 64.1613 31.2067 64.1613 30.7979C64.1613 30.3892 64.1744 30.1145 64.207 29.9612C64.2331 29.8207 64.2919 29.7058 64.3702 29.6163C64.4355 29.5333 64.5269 29.4567 64.6379 29.4056C64.7489 29.3481 64.8795 29.3225 65.0297 29.3162C65.2321 29.3225 65.4084 29.38 65.552 29.4886C65.6891 29.6036 65.787 29.7505 65.8393 29.9165H66.5183C66.453 29.5716 66.2898 29.2778 66.0286 29.0415C65.7674 28.8052 65.4345 28.6902 65.0297 28.6838C64.6967 28.6902 64.4159 28.7669 64.194 28.9202C63.9655 29.0671 63.8022 29.2395 63.6978 29.4311C63.6325 29.5333 63.5868 29.6611 63.5541 29.8271C63.528 29.9932 63.5084 30.3125 63.5084 30.7979C63.5084 31.2706 63.5215 31.5963 63.5541 31.7624C63.5672 31.8518 63.5868 31.9285 63.6129 31.9859C63.639 32.0434 63.6651 32.1009 63.6978 32.1648C63.8022 32.3564 63.9655 32.5224 64.194 32.6693C64.4159 32.8226 64.6967 32.8993 65.0297 32.9057C65.4606 32.8993 65.8197 32.7524 66.107 32.4777C66.3877 32.1967 66.5379 31.8518 66.5444 31.4303V30.5872H65.0362V31.1876Z" fill="white"/>
<path d="M71.5129 28.7285H70.8731V32.8801H73.5826V32.2861H71.5129V28.7285Z" fill="white"/>
<path d="M78.4075 28.7285H77.7677V32.8801H78.4075V28.7285Z" fill="white"/>
<path d="M85.4131 31.6793H85.4066L83.4805 28.7285H82.8799V32.8801H83.5197V29.9293H83.5328L85.4523 32.8801H86.0595V28.7285H85.4131V31.6793Z" fill="white"/>
<path d="M90.5318 32.8801H93.2413V32.2861H91.1782V31.0662H92.941V30.5105H91.1782V29.3225H93.2413V28.7285H90.5318V32.8801Z" fill="white"/>
<path d="M103.805 31.1876H104.667V31.4047C104.66 31.6666 104.582 31.8774 104.419 32.037C104.256 32.2031 104.047 32.2861 103.799 32.2861C103.648 32.2861 103.518 32.2542 103.407 32.1903C103.296 32.1392 103.205 32.069 103.139 31.9795C103.054 31.8901 103.002 31.7752 102.976 31.6283C102.943 31.4814 102.93 31.2067 102.93 30.7979C102.93 30.3892 102.943 30.1145 102.976 29.9612C103.002 29.8207 103.061 29.7058 103.139 29.6163C103.205 29.5333 103.296 29.4567 103.407 29.4056C103.518 29.3481 103.648 29.3225 103.799 29.3162C104.008 29.3225 104.177 29.38 104.321 29.4886C104.458 29.6036 104.556 29.7505 104.608 29.9165H105.287C105.222 29.5716 105.059 29.2778 104.798 29.0415C104.543 28.8052 104.203 28.6902 103.799 28.6838C103.466 28.6902 103.185 28.7669 102.963 28.9202C102.734 29.0671 102.571 29.2395 102.467 29.4311C102.401 29.5333 102.356 29.6611 102.323 29.8271C102.297 29.9932 102.277 30.3125 102.277 30.7979C102.277 31.2706 102.29 31.5963 102.323 31.7624C102.336 31.8518 102.356 31.9285 102.382 31.9859C102.408 32.0434 102.434 32.1009 102.467 32.1648C102.571 32.3564 102.734 32.5224 102.963 32.6693C103.185 32.8226 103.466 32.8993 103.799 32.9057C104.23 32.8993 104.589 32.7524 104.876 32.4777C105.157 32.1967 105.307 31.8518 105.313 31.4303V30.5872H103.805V31.1876Z" fill="white"/>
<path d="M112.339 29.4375C112.241 29.2459 112.077 29.0734 111.855 28.9265C111.627 28.7732 111.346 28.6966 111.013 28.6902C110.68 28.6966 110.399 28.7732 110.177 28.9265C109.949 29.0734 109.786 29.2459 109.681 29.4375C109.616 29.5397 109.57 29.6674 109.538 29.8335C109.512 29.9995 109.492 30.3189 109.492 30.8043C109.492 31.2769 109.505 31.6027 109.538 31.7687C109.551 31.8582 109.57 31.9348 109.596 31.9923C109.623 32.0498 109.649 32.1072 109.681 32.1711C109.786 32.3627 109.949 32.5288 110.177 32.6757C110.399 32.829 110.68 32.9056 111.013 32.912C111.353 32.9056 111.633 32.8226 111.855 32.6757C112.077 32.5288 112.241 32.3627 112.339 32.1711C112.41 32.0689 112.463 31.9348 112.489 31.7687C112.515 31.6027 112.528 31.2833 112.528 30.8043C112.528 30.3253 112.515 29.9995 112.489 29.8335C112.463 29.6738 112.41 29.5397 112.339 29.4375ZM111.836 31.6346C111.803 31.7815 111.744 31.8965 111.666 31.9859C111.601 32.0689 111.516 32.1392 111.411 32.1967C111.3 32.2605 111.163 32.2925 111.013 32.2925C110.863 32.2925 110.732 32.2605 110.621 32.1967C110.51 32.1456 110.419 32.0753 110.354 31.9859C110.269 31.8965 110.217 31.7815 110.191 31.6346C110.158 31.4877 110.145 31.2131 110.145 30.8043C110.145 30.3955 110.158 30.1209 110.191 29.9676C110.217 29.8271 110.275 29.7121 110.354 29.6227C110.419 29.5397 110.51 29.463 110.621 29.4119C110.732 29.3544 110.863 29.3289 111.013 29.3225C111.163 29.3289 111.3 29.3544 111.411 29.4119C111.516 29.4694 111.601 29.5397 111.666 29.6227C111.751 29.7121 111.81 29.8271 111.836 29.9676C111.862 30.1145 111.882 30.3955 111.882 30.8043C111.882 31.2131 111.868 31.4877 111.836 31.6346Z" fill="white"/>
<path d="M116.85 32.8801H119.56V32.2861H117.496V31.0662H119.259V30.5105H117.496V29.3225H119.56V28.7285H116.85V32.8801Z" fill="white"/>
<path d="M125.325 30.5105C125.122 30.4849 124.966 30.4657 124.848 30.4466C124.639 30.4083 124.489 30.338 124.391 30.2422C124.293 30.1464 124.247 30.0378 124.247 29.9165C124.254 29.7185 124.319 29.5652 124.463 29.4694C124.593 29.3736 124.763 29.3225 124.959 29.3225C125.344 29.3289 125.69 29.4374 126.01 29.6418L126.369 29.1245C125.978 28.8498 125.521 28.7029 124.992 28.6965C124.554 28.7029 124.215 28.8115 123.973 29.035C123.725 29.2586 123.601 29.5524 123.601 29.9101C123.601 30.2103 123.699 30.4657 123.895 30.6765C124.084 30.8809 124.365 31.015 124.731 31.0725C124.933 31.0981 125.122 31.1236 125.292 31.1492C125.664 31.213 125.847 31.3982 125.847 31.7048C125.84 32.0817 125.56 32.2733 125.011 32.2797C124.548 32.2733 124.143 32.1391 123.803 31.8645L123.379 32.3371C123.83 32.714 124.371 32.9056 124.998 32.9056C125.971 32.8928 126.467 32.4904 126.487 31.6984C126.487 31.4046 126.395 31.1492 126.206 30.9256C126.017 30.7084 125.723 30.5679 125.325 30.5105Z" fill="white"/>
<path d="M138.069 30.5105H136.391V28.7285H135.745V32.8801H136.391V31.0662H138.069V32.8801H138.716V28.7285H138.069V30.5105Z" fill="white"/>
<path d="M143.188 32.8801H145.897V32.2861H143.828V31.0662H145.591V30.5105H143.828V29.3225H145.897V28.7285H143.188V32.8801Z" fill="white"/>
<path d="M153.021 29.8846C153.007 29.5014 152.87 29.2076 152.596 28.9968C152.374 28.8116 152.087 28.7222 151.734 28.7222H150.076V32.8737H150.722V31.0981H151.545L152.42 32.8737H153.184L152.198 31.0343C152.74 30.8363 153.014 30.4531 153.021 29.8846ZM150.722 30.5489V29.2906H151.728C151.93 29.2906 152.093 29.3353 152.198 29.4184C152.335 29.5142 152.407 29.6738 152.413 29.891C152.413 30.0698 152.355 30.2231 152.237 30.3445C152.12 30.4786 151.937 30.5489 151.695 30.5489H150.722Z" fill="white"/>
<path d="M157.29 32.8801H160V32.2861H157.93V31.0662H159.693V30.5105H157.93V29.3225H160V28.7285H157.29V32.8801Z" fill="white"/>
</g>
<defs>
<clipPath id="clip0">
<rect width="39.0194" height="45" fill="white"/>
</clipPath>
<clipPath id="clip1">
<rect x="50" y="11.739" width="110" height="21.173" fill="white"/>
</clipPath>
</defs>
</svg>
