<svg width="160" height="46" viewBox="0 0 160 46" fill="none" xmlns="http://www.w3.org/2000/svg">
<g clip-path="url(#clip0)">
<path d="M36.7229 33.8639C36.1088 34.9446 35.3842 35.9615 34.5589 36.8973L34.5811 36.9194L33.8147 37.6882C30.403 41.1196 25.8615 43.0108 21.0252 43.0108C16.2086 43.0108 11.6793 41.1343 8.27253 37.7275C4.86576 34.3208 2.98921 29.7915 2.98921 24.9748C2.98921 24.6187 2.99904 24.2576 3.02114 23.899C3.0236 23.8499 3.02606 23.8008 3.03097 23.7492V23.7345C3.03343 23.7025 3.03588 23.6681 3.03834 23.6362V23.619C3.04325 23.5453 3.05062 23.4692 3.05799 23.3955C3.0629 23.3341 3.06781 23.2702 3.07518 23.2039C3.08501 23.1081 3.09483 23.0099 3.10466 22.9141C3.11202 22.8576 3.11694 22.7937 3.12676 22.7323C3.13659 22.6537 3.14641 22.5628 3.15869 22.4744C3.16606 22.4253 3.17343 22.3762 3.1808 22.327C3.19062 22.246 3.20536 22.1551 3.2201 22.0667C3.22747 22.02 3.23729 21.966 3.24466 21.9144C3.25203 21.8702 3.2594 21.826 3.26922 21.7818C3.27905 21.7253 3.29133 21.659 3.30361 21.5951C3.31343 21.5386 3.32572 21.4772 3.338 21.4158C3.35273 21.3446 3.36501 21.2758 3.38221 21.2021C3.48537 20.7109 3.61309 20.2172 3.75801 19.7357L3.76292 19.7235C3.78012 19.6596 3.79976 19.5957 3.82187 19.5343C3.83906 19.4803 3.85626 19.4263 3.87345 19.3698C3.97661 19.0554 4.0896 18.7361 4.20995 18.429C4.22715 18.3873 4.24434 18.3406 4.26153 18.2964C4.28118 18.2497 4.29838 18.2006 4.32048 18.149C4.34504 18.0901 4.37206 18.0238 4.39908 17.9574C4.41873 17.9083 4.44329 17.8518 4.46786 17.7978L4.47768 17.7732C4.51207 17.6995 4.544 17.6234 4.57838 17.5497C4.60295 17.4932 4.62751 17.4392 4.65453 17.3851C5.10893 16.4027 5.66158 15.4546 6.29282 14.5654L6.39598 14.4254C6.46721 14.3272 6.53844 14.2289 6.61213 14.1356C6.64652 14.0914 6.68336 14.0422 6.7202 13.9956C6.7988 13.8924 6.87986 13.7917 6.95846 13.6935C7.00513 13.637 7.05179 13.5756 7.10092 13.5191C7.14513 13.465 7.19425 13.4085 7.24338 13.3496C7.29005 13.2931 7.34163 13.2341 7.39075 13.1776C7.44724 13.1138 7.50374 13.0475 7.56023 12.9836L5.44297 10.8639C1.93059 14.7275 0 19.721 0 24.9724C0 30.5898 2.18603 35.8682 6.15773 39.8399C10.1294 43.8116 15.4078 45.9976 21.0252 45.9976C26.6598 45.9976 31.9529 43.7968 35.9271 39.803C37.0618 38.6633 38.0615 37.4008 38.904 36.0426L36.7229 33.8639Z" fill="#1D2A38"/>
<path d="M9.81255 36.1875C12.8067 39.1816 16.7906 40.8322 21.0252 40.8322C21.1578 40.8322 21.2904 40.8297 21.4231 40.8273C21.4894 40.8273 21.5532 40.8248 21.6196 40.8224H21.6294C21.7276 40.8174 21.8234 40.8125 21.9217 40.8076C22.0003 40.8027 22.0764 40.7978 22.155 40.7929C22.1943 40.7904 22.2287 40.788 22.2606 40.7855L22.3147 40.7806C22.3859 40.7757 22.4571 40.7683 22.5308 40.7609C22.5947 40.756 22.6536 40.7511 22.715 40.7438C22.7592 40.7388 22.7985 40.7339 22.8354 40.7315L22.9164 40.7216C22.968 40.7143 23.0196 40.7094 23.0736 40.702C23.2701 40.6774 23.4617 40.6504 23.6509 40.6185C23.7049 40.6087 23.7565 40.5988 23.8081 40.5915L23.8252 40.589C23.867 40.5816 23.9088 40.5743 23.9481 40.5669L23.9677 40.562C24.0217 40.5522 24.0758 40.5423 24.1298 40.5301C24.2723 40.503 24.4123 40.4736 24.5498 40.4416C24.6432 40.422 24.7365 40.3974 24.8298 40.3753L24.8421 40.3729C24.8667 40.368 24.8888 40.363 24.9133 40.3557C24.9821 40.3385 25.0435 40.3213 25.1074 40.3066C25.1614 40.2918 25.213 40.2795 25.2621 40.2648C25.3063 40.2525 25.3456 40.2427 25.3825 40.2304C25.4193 40.2206 25.4488 40.2132 25.4758 40.2034L25.4979 40.196C25.5372 40.1862 25.5765 40.1739 25.6158 40.1616C25.6821 40.142 25.7386 40.1248 25.7951 40.1051C25.8418 40.0904 25.8811 40.0781 25.9253 40.0658C26.0579 40.0216 26.1906 39.9774 26.3208 39.9307C26.3576 39.9185 26.392 39.9062 26.4264 39.8939L26.4534 39.8841C26.5001 39.8669 26.5418 39.8521 26.5811 39.8374C26.6474 39.8129 26.7039 39.7907 26.7629 39.7686C26.812 39.749 26.8562 39.7342 26.898 39.7171C26.979 39.6851 27.0527 39.6557 27.1264 39.6237L27.3475 39.5304C27.4162 39.5009 27.485 39.4714 27.5489 39.442C27.5882 39.4248 27.6201 39.41 27.6545 39.3953L27.6864 39.3806C27.7404 39.356 27.7945 39.329 27.8485 39.3044C28.1826 39.1448 28.5117 38.9753 28.8286 38.7935C28.8629 38.7739 28.8949 38.7542 28.9293 38.737C29.0029 38.6953 29.0766 38.6511 29.1479 38.6093L29.5114 38.3858C29.671 38.2826 29.8381 38.1746 30.0174 38.0517C30.0665 38.0174 30.1156 37.983 30.1647 37.9486L30.1844 37.9338C30.2212 37.9068 30.2581 37.8823 30.2949 37.8552L30.3047 37.8479C30.3318 37.8282 30.3588 37.8086 30.3858 37.7889L30.3956 37.7816C30.4423 37.7496 30.4865 37.7152 30.5307 37.6809C30.5823 37.644 30.6314 37.6047 30.6781 37.5679C30.7125 37.5408 30.7395 37.5187 30.769 37.4966L30.8033 37.4696C30.8525 37.4303 30.904 37.391 30.9532 37.3493C31.0048 37.3075 31.0563 37.2658 31.1055 37.2265L31.1177 37.2166C31.2135 37.138 31.3069 37.057 31.4027 36.9759C31.4321 36.9514 31.4592 36.9268 31.4886 36.8998L29.3689 34.7776C27.0478 36.7573 24.1028 37.8405 21.0325 37.8405C13.939 37.8405 8.16688 32.0684 8.16688 24.9749C8.16688 21.5165 9.52026 18.2718 11.974 15.8377C13.126 14.6956 14.5064 13.7696 15.9973 13.1334L13.7474 10.8835C12.313 11.6278 11.0038 12.5832 9.85185 13.7278C6.8307 16.7269 5.16785 20.7182 5.16785 24.9724C5.16785 29.2094 6.81842 33.1909 9.81255 36.1875Z" fill="white"/>
<path d="M39.0195 21.0252C39.0195 15.4078 36.8334 10.1294 32.8617 6.15773C28.89 2.18603 23.6092 0 17.9918 0C12.3572 0 7.0641 2.19831 3.0924 6.19457C1.95762 7.3318 0.957945 8.59675 0.113007 9.95504L2.29658 12.1386C2.91064 11.0579 3.63522 10.041 4.46051 9.10519L4.4384 9.08308L5.20474 8.31429C8.61397 4.88296 13.158 2.99167 17.9943 2.99167C22.8109 2.99167 27.3402 4.86822 30.7469 8.27499C34.1537 11.6818 36.0302 16.2086 36.0302 21.0277C36.0302 21.3838 36.0204 21.7473 35.9983 22.1035C35.9959 22.1501 35.9934 22.2017 35.9885 22.2533C35.986 22.2902 35.9836 22.327 35.9811 22.3638V22.381C35.9762 22.4547 35.9688 22.5309 35.9615 22.6045C35.9566 22.666 35.9516 22.7323 35.9443 22.7986C35.9344 22.8919 35.9246 22.9902 35.9148 23.0884C35.9074 23.1449 35.9025 23.2063 35.8927 23.2702C35.8829 23.3488 35.873 23.4372 35.8608 23.5281C35.8534 23.5772 35.846 23.6263 35.8387 23.673C35.8288 23.7565 35.8141 23.8449 35.7994 23.9358C35.792 23.9825 35.7822 24.0365 35.7748 24.0881C35.7674 24.1323 35.7601 24.1765 35.7502 24.2207C35.7404 24.2772 35.7281 24.3435 35.7158 24.4074C35.706 24.4639 35.6937 24.5253 35.679 24.5867C35.6667 24.6555 35.652 24.7267 35.6348 24.8004C35.5316 25.2916 35.4039 25.7878 35.259 26.2668C35.2393 26.3331 35.2197 26.4019 35.1951 26.4706C35.1779 26.5247 35.1607 26.5787 35.1435 26.6352C35.0404 26.952 34.9274 27.2689 34.807 27.5759C34.7899 27.6177 34.7727 27.6619 34.7555 27.7061C34.7358 27.7552 34.7162 27.8044 34.6965 27.8535C34.672 27.9124 34.6449 27.9787 34.6179 28.0451C34.5983 28.0942 34.5737 28.1507 34.5491 28.2047L34.5393 28.2293C34.5049 28.303 34.473 28.3791 34.4386 28.4528C34.4141 28.5093 34.3895 28.5633 34.3625 28.6174C33.9081 29.5998 33.3554 30.5479 32.7242 31.4371L32.6235 31.5771C32.5498 31.6778 32.4786 31.7736 32.4073 31.8669C32.3729 31.9136 32.3361 31.9603 32.2993 32.0069C32.2207 32.1101 32.1396 32.2108 32.061 32.3091C32.0143 32.3655 31.9677 32.427 31.9185 32.4834C31.8768 32.535 31.8326 32.5891 31.7859 32.6431L31.7761 32.6529C31.727 32.7094 31.6778 32.7684 31.6262 32.8249C31.5698 32.8887 31.5133 32.955 31.4568 33.0189L33.574 35.1386C37.0889 31.275 39.0195 26.279 39.0195 21.0252Z" fill="white"/>
<path d="M23.027 32.8692L25.2769 35.1191C26.7113 34.3748 28.0205 33.4194 29.1724 32.2748C32.1911 29.2757 33.8515 25.2819 33.8515 21.0278C33.8515 16.7932 32.201 12.8093 29.2068 9.81513C26.2102 6.81855 22.2287 5.16797 17.9918 5.16797C17.8591 5.16797 17.7265 5.17042 17.5938 5.17288C17.5275 5.17288 17.4637 5.17534 17.3973 5.17779H17.39C17.2917 5.18271 17.1959 5.18762 17.0977 5.19253C17.0191 5.19744 16.9429 5.20236 16.8643 5.20727C16.825 5.20972 16.7907 5.21218 16.7587 5.21464L16.7047 5.21955C16.6359 5.22446 16.5622 5.23183 16.491 5.2392C16.4271 5.24657 16.3682 5.25148 16.3068 5.25885C16.2626 5.26376 16.2233 5.26867 16.1864 5.27113L16.125 5.2785C16.1177 5.2785 16.1103 5.28095 16.1054 5.28095C16.0538 5.28587 16.0022 5.29324 15.9506 5.3006C15.7541 5.32517 15.5626 5.35464 15.3734 5.38412C15.3194 5.39394 15.2678 5.40131 15.2162 5.41113L15.199 5.41359C15.1573 5.42096 15.118 5.42833 15.0787 5.4357L15.0517 5.44061C15.0001 5.45043 14.9485 5.46026 14.8945 5.47008C14.7471 5.4971 14.6071 5.52658 14.4695 5.55851C14.3762 5.57816 14.2829 5.60272 14.1895 5.62482L14.1772 5.62728C14.1527 5.63219 14.1306 5.63711 14.106 5.64447C14.0372 5.66167 13.9758 5.67886 13.912 5.6936C13.8579 5.70834 13.8088 5.72062 13.7572 5.73535C13.713 5.74764 13.6737 5.75746 13.6344 5.76974C13.5976 5.77957 13.5681 5.78939 13.5411 5.79676L13.519 5.80413C13.4797 5.81395 13.4404 5.82623 13.4011 5.83852C13.3348 5.85817 13.2783 5.87536 13.2218 5.89501C13.1751 5.90975 13.1358 5.92203 13.0916 5.93431C12.959 5.97852 12.8263 6.02273 12.6962 6.0694C12.6593 6.08168 12.6274 6.09396 12.593 6.10624L12.5635 6.11607C12.5193 6.13326 12.48 6.14554 12.4407 6.16274C12.3719 6.1873 12.313 6.2094 12.254 6.23397C12.2049 6.25362 12.1632 6.27081 12.1189 6.288C12.0379 6.31993 11.9642 6.34941 11.8905 6.38134L11.6695 6.47468C11.6007 6.50415 11.5344 6.53363 11.468 6.5631C11.4312 6.58029 11.3968 6.59503 11.3624 6.60977L11.3305 6.62451C11.2765 6.64907 11.2224 6.67609 11.1684 6.70065C10.8343 6.8603 10.5052 7.02978 10.1884 7.21154C10.1515 7.23119 10.122 7.24838 10.0877 7.26803C10.0189 7.30733 9.94765 7.34909 9.88133 7.38839L9.6529 7.52839C9.60623 7.55787 9.55711 7.5898 9.50798 7.61927C9.34587 7.72243 9.18131 7.83051 9.00446 7.95332C8.95779 7.98525 8.91358 8.01718 8.86937 8.04665L8.83989 8.0663C8.79814 8.09578 8.76129 8.1228 8.72445 8.14982L8.70971 8.15964C8.68515 8.17929 8.66059 8.19648 8.63357 8.21613L8.62375 8.2235C8.57708 8.25543 8.53287 8.28982 8.48866 8.32421C8.43707 8.36105 8.39041 8.40035 8.34128 8.43719C8.30689 8.46421 8.27742 8.48632 8.2504 8.50842L8.21602 8.53544C8.16689 8.57474 8.11531 8.61404 8.06619 8.6558C8.00969 8.70001 7.95566 8.74668 7.90162 8.79089C7.80583 8.86949 7.71249 8.94809 7.6167 9.0316C7.58722 9.05616 7.56021 9.08072 7.53073 9.10774L9.6529 11.2299C11.974 9.2502 14.919 8.16455 17.9893 8.16455C25.0828 8.16455 30.8549 13.9367 30.8549 21.0302C30.8549 24.4886 29.5016 27.7332 27.0478 30.1673C25.8983 31.3046 24.5179 32.233 23.027 32.8692Z" fill="#1D2A38"/>
</g>
<g clip-path="url(#clip1)">
<path d="M57.9196 30.2354L57.3059 32.0896H58.5464L57.9327 30.2354H57.9196Z" fill="white"/>
<path d="M58.8076 19.7499C58.5986 20.6835 58.2004 21.3952 57.6258 21.8849C57.0382 22.3549 56.3266 22.5965 55.4778 22.5965C54.7857 22.5965 54.1459 22.4202 53.5387 22.0742C52.9511 21.7282 52.5137 21.1928 52.2394 20.4811C51.9391 19.7695 51.802 18.9207 51.802 17.9675C51.802 17.2232 51.926 16.4919 52.1676 15.7999C52.4092 15.1013 52.827 14.5463 53.4016 14.135C53.9892 13.7367 54.7335 13.5278 55.6019 13.5278C56.3657 13.5278 56.986 13.7041 57.4887 14.0827C57.9915 14.4484 58.3701 15.036 58.6313 15.8521L58.6639 15.937L60.4006 15.5387L60.368 15.4342C60.0415 14.357 59.467 13.5082 58.6509 12.901C57.8348 12.3134 56.8293 12.0196 55.6345 12.0196C54.5964 12.0196 53.6236 12.2481 52.7356 12.7117C51.8738 13.1948 51.1817 13.8869 50.7117 14.7944C50.2416 15.6954 50 16.7662 50 17.9675C50 19.0774 50.2089 20.1351 50.6268 21.0883C51.0446 22.0611 51.6649 22.825 52.481 23.3278C53.2775 23.8501 54.3352 24.1112 55.6214 24.1112C56.8554 24.1112 57.9131 23.7652 58.7749 23.1058C59.6433 22.4464 60.2309 21.4605 60.5639 20.1939L60.5965 20.0894L58.8467 19.6585L58.8076 19.7499Z" fill="white"/>
<path d="M74.6925 12.7835C73.8046 12.2612 72.7991 12 71.7088 12C70.0243 12 68.6402 12.555 67.5825 13.6453C66.5248 14.7356 65.9894 16.283 65.9894 18.2025C65.9894 19.2276 66.218 20.1939 66.6815 21.1144C67.132 22.035 67.811 22.7597 68.6924 23.3016C69.5738 23.837 70.5858 24.0982 71.6892 24.0982C72.7273 24.0982 73.7001 23.8566 74.5816 23.3669C75.4826 22.8968 76.1746 22.1721 76.6774 21.232C77.1605 20.3114 77.4086 19.2406 77.4086 18.0589C77.4086 16.8967 77.167 15.8586 76.7165 14.938C76.253 14.0305 75.574 13.2993 74.6925 12.7835ZM74.5032 21.4148C73.772 22.1917 72.8187 22.5965 71.6958 22.5965C70.5858 22.5965 69.6522 22.1982 68.9014 21.4344C68.1701 20.6509 67.7914 19.5801 67.7914 18.2286C67.7914 16.5442 68.1897 15.3167 68.9536 14.6051C69.7175 13.8934 70.6511 13.5278 71.7088 13.5278C72.4727 13.5278 73.1452 13.7171 73.7524 14.0827C74.34 14.4484 74.8101 14.9837 75.1235 15.6627C75.4368 16.3418 75.5935 17.1514 75.5935 18.0719C75.5935 19.5083 75.2279 20.6378 74.5032 21.4148Z" fill="white"/>
<path d="M92.5688 12.5027L89.7744 20.4615C89.5459 21.1014 89.3762 21.6041 89.2521 22.0024L88.782 20.6182L85.9942 12.3983H85.8048V16.6486L88.3903 24.1047H89.9311L92.5688 16.6617V12.5027Z" fill="white"/>
<path d="M85.1781 12.3983H83.4805V24.1047H85.1781V12.3983Z" fill="white"/>
<path d="M94.8736 12.3983H93.1891V24.1047H94.8736V12.3983Z" fill="white"/>
<path d="M102.695 12.3983H100.945V24.1047H102.695V12.3983Z" fill="white"/>
<path d="M109.733 14.2198C109.472 13.7367 109.159 13.3384 108.748 13.0773C108.349 12.7965 107.847 12.6072 107.272 12.5223C106.854 12.4374 106.247 12.3983 105.47 12.3983H103.322V13.9587H105.594C106.286 13.9587 106.756 13.9913 107.017 14.0631C107.396 14.1676 107.71 14.3765 107.938 14.703C108.18 15.0294 108.284 15.4146 108.284 15.8847C108.284 16.5115 108.095 16.9946 107.696 17.3407C107.298 17.6867 106.606 17.863 105.633 17.863H103.329V19.443H105.62C107.285 19.443 108.48 19.0774 109.12 18.3853C109.779 17.6932 110.106 16.8445 110.106 15.839C110.099 15.2449 109.975 14.703 109.733 14.2198Z" fill="white"/>
<path d="M120.741 12.3983L116.165 24.1047H118.019L118.541 22.7336H118.521L119.84 19.1818L120.121 18.4506L121.094 15.8651H121.113C121.322 15.2906 121.492 14.703 121.636 14.1284C121.812 14.6834 122.054 15.3624 122.347 16.1198L123.529 19.1688H120.532L119.997 20.6052H124.091L125.462 24.0916H127.453L122.563 12.3852H120.741V12.3983Z" fill="white"/>
<path d="M134.968 12.3983H133.336V24.1047H134.968V12.3983Z" fill="white"/>
<path d="M141.066 21.1928L141.033 21.1405V24.1047H142.764V12.3983H141.066V21.1928Z" fill="white"/>
<path d="M135.588 16.1459L140.407 23.2168V20.22L135.588 13.1622V16.1459Z" fill="white"/>
<path d="M157.917 12.3983L155.613 15.8325C155.162 16.5115 154.764 17.1513 154.418 17.7063V17.6867L153.445 19.1623V24.1047H155.214V19.1623L159.98 12.3983H157.917Z" fill="white"/>
<path d="M154.052 17.0795L153.327 15.9174L150.984 12.3983H148.835L153.066 18.6073L154.052 17.0795Z" fill="white"/>
<path d="M50 29.9416H51.1622V33.6109H51.8085V29.9416H52.9707V29.3671H50V29.9416Z" fill="white"/>
<path d="M57.6585 29.3671L56.1176 33.6109H56.7967L57.1231 32.6642H58.7358L59.0622 33.6109H59.7412L58.2004 29.3671H57.6585ZM57.3059 32.0896L57.9196 30.2354H57.9327L58.5464 32.0896H57.3059Z" fill="white"/>
<path d="M65.0362 31.8807H65.898V32.1027C65.8915 32.3704 65.8131 32.5858 65.6499 32.7491C65.4867 32.9188 65.2778 33.0037 65.0297 33.0037C64.8795 33.0037 64.7489 32.971 64.6379 32.9058C64.5269 32.8535 64.4355 32.7817 64.3702 32.6903C64.2854 32.5989 64.2331 32.4814 64.207 32.3312C64.1744 32.181 64.1613 31.9003 64.1613 31.4824C64.1613 31.0646 64.1744 30.7838 64.207 30.6271C64.2331 30.4835 64.2919 30.366 64.3702 30.2746C64.4355 30.1897 64.5269 30.1114 64.6379 30.0591C64.7489 30.0004 64.8795 29.9742 65.0297 29.9677C65.2321 29.9742 65.4084 30.033 65.552 30.144C65.6891 30.2615 65.787 30.4117 65.8393 30.5814H66.5183C66.453 30.2289 66.2898 29.9285 66.0286 29.687C65.7674 29.4454 65.4345 29.3279 65.0297 29.3214C64.6967 29.3279 64.4159 29.4062 64.194 29.5629C63.9655 29.7131 63.8022 29.8894 63.6978 30.0852C63.6325 30.1897 63.5868 30.3203 63.5541 30.49C63.528 30.6598 63.5084 30.9862 63.5084 31.4824C63.5084 31.9656 63.5215 32.2986 63.5541 32.4683C63.5672 32.5597 63.5868 32.6381 63.6129 32.6968C63.639 32.7556 63.6651 32.8143 63.6978 32.8796C63.8022 33.0755 63.9655 33.2453 64.194 33.3954C64.4159 33.5521 64.6967 33.6305 65.0297 33.637C65.4606 33.6305 65.8197 33.4803 66.107 33.1996C66.3877 32.9123 66.5379 32.5597 66.5444 32.1288V31.267H65.0362V31.8807Z" fill="white"/>
<path d="M71.5129 29.3671H70.8731V33.6109H73.5826V33.0037H71.5129V29.3671Z" fill="white"/>
<path d="M78.4075 29.3671H77.7677V33.6109H78.4075V29.3671Z" fill="white"/>
<path d="M85.4131 32.3834H85.4066L83.4805 29.3671H82.8799V33.6109H83.5197V30.5945H83.5328L85.4523 33.6109H86.0595V29.3671H85.4131V32.3834Z" fill="white"/>
<path d="M90.5318 33.6109H93.2413V33.0037H91.1782V31.7567H92.941V31.1886H91.1782V29.9743H93.2413V29.3671H90.5318V33.6109Z" fill="white"/>
<path d="M103.805 31.8807H104.667V32.1027C104.66 32.3704 104.582 32.5858 104.419 32.7491C104.256 32.9188 104.047 33.0037 103.799 33.0037C103.648 33.0037 103.518 32.971 103.407 32.9058C103.296 32.8535 103.205 32.7817 103.139 32.6903C103.054 32.5989 103.002 32.4814 102.976 32.3312C102.943 32.181 102.93 31.9003 102.93 31.4824C102.93 31.0646 102.943 30.7838 102.976 30.6271C103.002 30.4835 103.061 30.366 103.139 30.2746C103.205 30.1897 103.296 30.1114 103.407 30.0591C103.518 30.0004 103.648 29.9742 103.799 29.9677C104.008 29.9742 104.177 30.033 104.321 30.144C104.458 30.2615 104.556 30.4117 104.608 30.5814H105.287C105.222 30.2289 105.059 29.9285 104.798 29.687C104.543 29.4454 104.203 29.3279 103.799 29.3214C103.466 29.3279 103.185 29.4062 102.963 29.5629C102.734 29.7131 102.571 29.8894 102.467 30.0852C102.401 30.1897 102.356 30.3203 102.323 30.49C102.297 30.6598 102.277 30.9862 102.277 31.4824C102.277 31.9656 102.29 32.2986 102.323 32.4683C102.336 32.5597 102.356 32.6381 102.382 32.6968C102.408 32.7556 102.434 32.8143 102.467 32.8796C102.571 33.0755 102.734 33.2453 102.963 33.3954C103.185 33.5521 103.466 33.6305 103.799 33.637C104.23 33.6305 104.589 33.4803 104.876 33.1996C105.157 32.9123 105.307 32.5597 105.313 32.1288V31.267H103.805V31.8807Z" fill="white"/>
<path d="M112.339 30.0918C112.241 29.8959 112.077 29.7196 111.855 29.5695C111.627 29.4128 111.346 29.3344 111.013 29.3279C110.68 29.3344 110.399 29.4128 110.177 29.5695C109.949 29.7196 109.786 29.8959 109.681 30.0918C109.616 30.1962 109.57 30.3268 109.538 30.4966C109.512 30.6663 109.492 30.9928 109.492 31.489C109.492 31.9721 109.505 32.3051 109.538 32.4748C109.551 32.5662 109.57 32.6446 109.596 32.7034C109.623 32.7621 109.649 32.8209 109.681 32.8862C109.786 33.082 109.949 33.2518 110.177 33.402C110.399 33.5586 110.68 33.637 111.013 33.6435C111.353 33.637 111.633 33.5521 111.855 33.402C112.077 33.2518 112.241 33.082 112.339 32.8862C112.41 32.7817 112.463 32.6446 112.489 32.4748C112.515 32.3051 112.528 31.9786 112.528 31.489C112.528 30.9993 112.515 30.6663 112.489 30.4966C112.463 30.3333 112.41 30.1962 112.339 30.0918ZM111.836 32.3377C111.803 32.4879 111.744 32.6054 111.666 32.6968C111.601 32.7817 111.516 32.8535 111.411 32.9123C111.3 32.9776 111.163 33.0102 111.013 33.0102C110.863 33.0102 110.732 32.9776 110.621 32.9123C110.51 32.8601 110.419 32.7882 110.354 32.6968C110.269 32.6054 110.217 32.4879 110.191 32.3377C110.158 32.1876 110.145 31.9068 110.145 31.489C110.145 31.0711 110.158 30.7904 110.191 30.6337C110.217 30.49 110.275 30.3725 110.354 30.2811C110.419 30.1962 110.51 30.1179 110.621 30.0657C110.732 30.0069 110.863 29.9808 111.013 29.9742C111.163 29.9808 111.3 30.0069 111.411 30.0657C111.516 30.1244 111.601 30.1962 111.666 30.2811C111.751 30.3725 111.81 30.49 111.836 30.6337C111.862 30.7838 111.882 31.0711 111.882 31.489C111.882 31.9068 111.868 32.1876 111.836 32.3377Z" fill="white"/>
<path d="M116.85 33.6109H119.56V33.0037H117.496V31.7567H119.259V31.1886H117.496V29.9743H119.56V29.3671H116.85V33.6109Z" fill="white"/>
<path d="M125.325 31.1886C125.122 31.1625 124.966 31.1429 124.848 31.1233C124.639 31.0842 124.489 31.0124 124.391 30.9144C124.293 30.8165 124.247 30.7055 124.247 30.5814C124.254 30.379 124.319 30.2224 124.463 30.1244C124.593 30.0265 124.763 29.9743 124.959 29.9743C125.344 29.9808 125.69 30.0918 126.01 30.3007L126.369 29.7719C125.978 29.4911 125.521 29.3409 124.992 29.3344C124.554 29.3409 124.215 29.4519 123.973 29.6804C123.725 29.909 123.601 30.2093 123.601 30.5749C123.601 30.8818 123.699 31.1429 123.895 31.3584C124.084 31.5673 124.365 31.7044 124.731 31.7632C124.933 31.7893 125.122 31.8154 125.292 31.8415C125.664 31.9068 125.847 32.0962 125.847 32.4096C125.84 32.7948 125.56 32.9906 125.011 32.9972C124.548 32.9906 124.143 32.8535 123.803 32.5728L123.379 33.0559C123.83 33.4411 124.371 33.637 124.998 33.637C125.971 33.6239 126.467 33.2126 126.487 32.403C126.487 32.1027 126.395 31.8415 126.206 31.613C126.017 31.391 125.723 31.2474 125.325 31.1886Z" fill="white"/>
<path d="M138.069 31.1886H136.391V29.3671H135.745V33.6109H136.391V31.7567H138.069V33.6109H138.716V29.3671H138.069V31.1886Z" fill="white"/>
<path d="M143.188 33.6109H145.897V33.0037H143.828V31.7567H145.591V31.1886H143.828V29.9743H145.897V29.3671H143.188V33.6109Z" fill="white"/>
<path d="M153.021 30.5488C153.007 30.1571 152.87 29.8567 152.596 29.6413C152.374 29.4519 152.087 29.3605 151.734 29.3605H150.076V33.6044H150.722V31.7893H151.545L152.42 33.6044H153.184L152.198 31.724C152.74 31.5216 153.014 31.1299 153.021 30.5488ZM150.722 31.2278V29.9416H151.728C151.93 29.9416 152.093 29.9873 152.198 30.0722C152.335 30.1701 152.407 30.3334 152.413 30.5553C152.413 30.7381 152.355 30.8948 152.237 31.0189C152.12 31.156 151.937 31.2278 151.695 31.2278H150.722Z" fill="white"/>
<path d="M157.29 33.6109H160V33.0037H157.93V31.7567H159.693V31.1886H157.93V29.9743H160V29.3671H157.29V33.6109Z" fill="white"/>
</g>
<defs>
<clipPath id="clip0">
<rect width="39.0194" height="46" fill="white"/>
</clipPath>
<clipPath id="clip1">
<rect x="50" y="12" width="110" height="21.6435" fill="white"/>
</clipPath>
</defs>
</svg>
